<svg xmlns="http://www.w3.org/2000/svg" width="658" height="145" viewBox="0 0 658 145">
  <defs>
    <style>
      .cls-1 {
        fill: #e38a17;
      }

      .cls-1, .cls-2, .cls-3, .cls-4, .cls-5, .cls-6 {
        fill-rule: evenodd;
      }

      .cls-2 {
        fill: #3299d9;
      }

      .cls-3 {
        fill: #f32929;
      }

      .cls-4 {
        fill: #ffcc26;
      }

      .cls-5 {
        fill: #535353;
      }

      .cls-6 {
        fill: #333;
      }
    </style>
  </defs>
  <path id="Relleno_de_color_9" data-name="Relleno de color 9" class="cls-1" d="M25,47H42V58H25V47Zm0,23H42v59H25V70Z"/>
  <path id="Relleno_de_color_10" data-name="Relleno de color 10" class="cls-2" d="M46,47H66V58H46V47Zm0,23H66v59H46V70Z"/>
  <path id="Relleno_de_color_12" data-name="Relleno de color 12" class="cls-3" d="M110,45V57L93,59,92,47Zm3,25q3.5,28,7,56h-2c-3.117,2.022-11.575,1.978-16,2L95,71Z"/>
  <path id="Relleno_de_color_11" data-name="Relleno de color 11" class="cls-4" d="M76,47H90V58H76V47ZM72,71H90v58H72V71Z"/>
  <path id="Relleno_de_color_13" data-name="Relleno de color 13" class="cls-5" d="M27,87h4c1.708,2.725,2.536,2.5,3,7-2.725,1.708-2.5,2.536-7,3-1.708-2.725-2.536-2.5-3-7,0.8-1.021.355-.274,1-2C26.754,87.369,25.971,87.807,27,87Zm21,0,6,1v2c1.4,2.24.545,3.276,0,6l-6,1C44.993,92.088,45.057,91.679,48,87Zm21,0,6,1v2c1.4,2.24.545,3.276,0,6l-6,1c-1.708-2.725-2.536-2.5-3-7,0.8-1.021.355-.274,1-2C68.754,87.369,67.971,87.807,69,87Zm21,0h5c1.372,2.542,1.917,3.5,2,8l-3,1c-1.18.8-1.681,0.773-4,1C86.993,92.088,87.057,91.679,90,87Zm21,0,6,1v2c1.4,2.24.545,3.276,0,6l-6,1a18.064,18.064,0,0,0-3-4c0.631-1.754.193-.971,1-2C109.708,88.653,110.025,88.766,111,87ZM27,108h4c1.708,2.725,2.536,2.5,3,7-2.725,1.708-2.5,2.536-7,3C23.393,113.637,24.136,112.459,27,108Zm21,0,6,1v2c1.4,2.24.545,3.276,0,6l-6,1c-1.533-2.464-2.291-2.276-3-6A19.079,19.079,0,0,0,48,108Zm22,0,5,1v2c1.4,2.24.545,3.276,0,6H73c-2.24,1.4-3.276.545-6,0l-1-6A18.064,18.064,0,0,0,70,108Zm20,0,6,1v2c0.877,1.3.894,2.467,1,5-2.418,1.3-2.833,1.8-7,2a18.047,18.047,0,0,0-3-4c0.631-1.754.193-.971,1-2C88.708,109.653,89.025,109.766,90,108Zm21,0,6,1v2c1.4,2.24.545,3.276,0,6l-6,1a18.068,18.068,0,0,0-3-4c0.631-1.754.193-.971,1-2C109.708,109.653,110.025,109.766,111,108Z"/>
  <path id="Relleno_de_color_14" data-name="Relleno de color 14" class="cls-6" d="M232,14h3l4,11c-6.337,4.41-7.208,11.642-16,14q-0.5-4-1-8C225.851,26.077,228.9,19.165,232,14Zm-68,3c5.988-.1,8.976.93,13,2,11.132,17.066,13.24,53.881,6,78-2.389,7.96-1.74,17.078-9,20-1.933,2.139-5.58,4.327-8,3-8.725-3.039-9.274-13.792-12-23C145.277,67.541,151.009,36.6,164,17Zm101,2,9,1V42h8V52h-8q-0.5,31.5-1,63h-7q-0.5-31.5-1-63h-9V42h9V19Zm-74,2,8,1q-0.5,46.5-1,93h-7V21Zm-24,7c-9.347,22.167-8.983,60.019,1,81h1v-1c12.869-12.823,8.306-58.356,4-77C170.8,29.741,169.945,28.82,167,28ZM353,69H343c0.049-7.215-1.682-11.306-3-17a18.313,18.313,0,0,0-6-1c-1.021.8-.274,0.355-2,1-2.208,4.592-3.913,6.765-4,14,2.135,1.793,2.043,5.15,4,7,3.155,2.983,9.372,2.494,13,5,2.8,1.937,3.671,6.534,6,9,0.2,9.985-1.274,16.848-3,24-6.528,3.313-9.983,4.683-19,4-5.518-7.1-9.906-10.665-10-24l9-1c0.3,5.172,1.917,7.644,3,12,2.488,1.551,2.522,2.976,5,2,2.963-.829,2.733-0.443,4-3,1.988-2.156,2.069-4.577,2-9-7.72-3.518-18.71-10.1-22-18-5.212-12.519-.5-31.911,11-34,1.993-1.471,4.649-1.812,8-2,2.264,2.063,5.391,2.09,8,4C353,46.391,353.172,58.41,353,69Zm291,0H634c0.049-7.215-1.682-11.306-3-17a18.313,18.313,0,0,0-6-1c-1.021.8-.274,0.355-2,1-2.208,4.592-3.913,6.765-4,14,2.135,1.793,2.043,5.15,4,7,3.155,2.983,9.372,2.494,13,5,2.8,1.937,3.671,6.534,6,9,0.2,9.985-1.274,16.848-3,24-6.528,3.313-9.983,4.683-19,4-5.518-7.1-9.906-10.665-10-24l9-1c0.3,5.172,1.917,7.644,3,12,2.488,1.551,2.522,2.976,5,2,2.963-.829,2.733-0.443,4-3,1.988-2.156,2.069-4.577,2-9-7.72-3.518-18.71-10.1-22-18-5.212-12.519-.5-31.911,11-34,1.993-1.471,4.649-1.812,8-2,2.264,2.063,5.391,2.09,8,4C644,46.391,644.172,58.41,644,69ZM401,72c0.052-6.762-1.673-9.2-3-14-3.4-2.171-4.873-4.215-10-5-2.327,3.362-5.714,6.626-7,11-4.475,15.225.233,39.131,13,41,2.932-4.65,6.047-8.085,7-15h4c2.234,3.453,3.741,4.022,4,10-7.605,8.51-5.725,16.3-23,16a19.54,19.54,0,0,0-4-2c-9.061-18.246-22.248-72.675,14-72,1.073,0.752.946,0.6,3,1l8,10c1.818,4.124.637,9.7,3,13-0.18-14.5,5.033-18.128,12-25l11-1c1.537,1.748,4.669,2.192,6,4,2.12,2.881,4.893,8.968,6,12,7.716,21.139.915,60.96-20,61-1.073-.752-0.946-0.6-3-1-1.857-2.8-5.266-4.4-7-7-6.017-9.015-6.01-24.349-6-39h-2C405.263,72.022,404.855,71.869,401,72ZM242,77H213c-0.191,9.449,1.371,15.313,3,22,3.481,2.3,4.517,4.246,10,5,2.739-5.172,5.183-12.745,12-14l1,3c4.721,6.959-5.7,21.139-10,23H217v-1c-18.122-5.864-22.655-74.779,9-74,1.521,1.051,4.915,1.586,7,2C238.42,52.43,241.922,61.667,242,77Zm364,39c-3.992-.057-8.448-2.2-10-2-3.705.482-6.552,3.824-13,4-16.021-14.41-15.035-15.88-9-40,5.251-3.546,6.294-6.079,16-6l9,3V69c-2.982-4.9-1.664-10.568-6-14a11.725,11.725,0,0,0-5-2c-3.328,4.53-5.354,9.09-8,15l-8-4V74c-1.238,1.838-1.089,5.7-1,9h-7V81c-2.816-4.779.21-19.912-2-26h-1v1c-13.707,9.293-12.121,39.076-12,62l-8-1c0.036-26.212-1.105-48.03-1-72h2c1.549-1.049,4.085-1.031,7-1-0.147,3.872-.537,9.715,1,12,0.618-4.474,3.239-8.6,7-10,2.156-1.989,4.577-2.069,9-2,1.228,2.142,4.021,4.158,5,6,1.4,2.629.491,6.752,2,9,0.21-6.633,2.771-12.269,8-14,4.167-4.075,12.73-3.253,18-1C608.63,64.645,605.992,87.314,606,116ZM506,139h-7V45c4.307-.009,8.073,2.145,10,2,1.24-.093,4.376-3.566,6-4,5.946-1.589,10.051,1.942,14,3,8.109,13.4,12.7,64.584-5,71-2.275,2.093-5.344,2.113-10,2-2-3.081-4.816-5.131-8-7v27ZM284,45l9,1c-0.2,18.745-3.779,43.564,2,59l2-1a155.35,155.35,0,0,0,11-57h8q-0.5,34.5-1,69h-7c0.169-4.749,0-8.534-2-11v2c-3,3.967-7.619,13.04-14,10C278.09,111.331,283.671,63.485,284,45Zm208,69h-8c0.223-17.635,4.513-37.174-1-52-0.8,1.021-.355.274-1,2-8.938,7.287-6.16,34.131-6,50l-9,1V62h-1v2c-8.852,7.316-8.427,35.209-9,50h-8V47l9,1c-0.117,3.28-.236,7.184,1,9,0.895-6.413,4.865-10.622,12-11l4,8c4.071-2.713,5.371-5.432,12-6C495.4,65.954,494.728,91.075,492,114ZM426,51c-12.373,18.739-11.143,35.982,1,54,1.754-.631.971-0.193,2-1,9.658-6.032,14.932-45.571,1-51C428.641,51.739,428.232,51.635,426,51ZM233,67c-0.529-4.706-2.964-9.675-6-12-1.681-1.344-3.143-1.637-6-2-2.917,4.568-5.624,8.316-8,14h20ZM516,53c-11.461,18.3-15.572,36.614,1,54,1.754-.631.971-0.193,2-1,14.045-8.914,9.047-33.307,5-48C521.029,56.05,520.061,54.157,516,53Zm70,30c-2.194,3.588-4.4,4.584-5,10-1.142,1.69-1.066,4.9-1,8,3.6,2.409,4.061,4.478,10,5,3.382-5.053,7.289-6.763,9-14C594.407,88.938,592.156,84.734,586,83Z"/>
  <path id="cesta" class="cls-6" d="M76,60h69a2.84,2.84,0,0,0,1,1c1.869,14.585-2.648,34.418-6,48q-1.5,12-3,24c-1.443,3.671-6.374,6.285-9,9H68c-7.955,1.683-23.047,1.723-31,0-6.846-1.483-14.153,1.112-19-2-4.754-1.45-7.82-4.737-8-11-3.329-5.381-1.356-13.973-3-21A319.256,319.256,0,0,1,0,62H1V61c19.813-2.34,44.452-1.021,66-1V35C57.625,30.7,54.021,22.5,57,9c6.939-4.29,8.373-7.158,21-7,4.778,6.98,10.97,7.664,11,20-2.134,2.217-2.051,5.449-4,8l-7,5C74.667,40.185,75.926,51.841,76,60ZM68,11c-2.253,3.552-3.773,4.881-4,11l3,2c-0.153-4.735-.033-7.352,3-9,1.18-.8,1.681-0.773,4-1,0.546,3.488,1.282,8.427,4,10V23c1.521-1.895,1.789-3.59,2-7C75.9,12.714,76.286,10.9,68,11ZM10,68c-0.289,14.581,3.931,31.383,7,45,1.568,6.958-.555,13.479,3,18v1c30.347,3.811,71.011,1.022,106,1q0.5-1.5,1-3c6.332-8.394,7.941-47.863,11-61C100.661,64.667,52.1,67.986,10,68Z"/>
</svg>
