<svg xmlns="http://www.w3.org/2000/svg" width="658" height="145" viewBox="0 0 658 145">
  <defs>
    <style>
      .cls-1 {
        fill: #fff;
        fill-rule: evenodd;
      }
    </style>
  </defs>
  <path id="Relleno_de_color_1" data-name="Relleno de color 1" class="cls-1" d="M76,47H90V58H76v2h69c1.441,2.67,1.994,4.221,2,9-3.309,5.457-1.331,14.024-3,21-3.341,13.966-4.772,31.154-8,45-2.92,1.951-5.515,5.868-9,7H92c-24.371,0-55.052,2.8-76-2l-6-7L0,62c11.216-5.783,50.623-2.106,67-2V35C56.3,30.325,53.659,22.118,57,9a59.777,59.777,0,0,0,9-7H77c5,4.421,17.62,12.732,10,23C82.971,36.07,75.853,29.125,76,47ZM68,11c-2.813,3.373-4.021,4.264-4,11l3,2a38.807,38.807,0,0,1,1-9,18.311,18.311,0,0,1,6-1c1.05,2.142,1.473,8.638,3,11V24h1a24.935,24.935,0,0,0,2-7,51.516,51.516,0,0,1-4-6H68Zm164,3h3c1.132,4.425,3.183,6.078,4,11-5.689,3.96-7.785,12.947-16,14V37C218.851,30.626,229.317,18.343,232,14Zm-68,3c3.474-.131,8.032-0.334,10,1,17.263,5.873,14.515,62.42,9,81-2.222,7.486-3.219,16.315-10,19-11.4,10.007-16.894-11.259-19-19C146.59,71.76,149.187,32.291,164,17Zm101,2,9,1V42h8V52h-8c-0.27,19.479-.967,41.993-1,63h-7q-0.5-31.5-1-63h-9V42h9V19Zm-74,2,8,1c0.045,30.928-.79,63.638-1,93h-7V21Zm-24,7c-9.4,19.487-9.859,62.424,1,81h1v-1c7.853-6.2,10.481-45.086,7-60C173.893,38.974,176.624,29.4,167,28ZM353,69H343c0.39-6.287-1.43-11.039-3-17-3.107-.847-2.709-1.951-5-1-3.261,1.037-3.918,1.784-5,5-1.791,2.226-2,4.8-2,9,1.886,2.177,2.645,6.359,5,8,6.426,4.477,13.117,2.878,16,11,5.242,6.512.652,21.155-1,27-17.106,11.518-29.13.883-29-20l9-1c0.274,5.215,1.879,7.876,3,12a18.068,18.068,0,0,1,4,3c1.754-.631.971-0.193,2-1,3.081-1.038,2.918-.967,4-4,1.142-1.69,1.066-4.9,1-8-7.643-4.623-18.7-9.984-22-19-5.271-14.4,1.011-33.5,14-34,2.17-1.434,5.974-.6,8,1C352.38,43.191,353.381,54.949,353,69Zm291,0H634c0.39-6.287-1.43-11.039-3-17-3.107-.847-2.709-1.951-5-1-3.261,1.037-3.918,1.784-5,5-1.791,2.226-2,4.8-2,9,1.886,2.177,2.645,6.359,5,8,6.426,4.477,13.117,2.878,16,11,5.242,6.512.652,21.155-1,27-17.106,11.518-29.13.883-29-20l9-1c0.274,5.215,1.879,7.876,3,12a18.068,18.068,0,0,1,4,3c1.754-.631.971-0.193,2-1,3.081-1.038,2.918-.967,4-4,1.142-1.69,1.066-4.9,1-8-7.643-4.623-18.7-9.984-22-19-5.271-14.4,1.011-33.5,14-34,2.17-1.434,5.974-.6,8,1C643.38,43.191,644.381,54.949,644,69ZM401,72c0.176-8.7-2.549-15.883-9-18-1.18-.8-1.681-0.773-4-1-1.971,2.834-4.878,5.349-6,9-4.317,14.047-1.35,41.771,11,43,1.021-.8.274-0.355,2-1,2.707-4.515,5.447-6.992,6-14h4c2.395,3.384,3.817,2.778,4,9-2.694,3.52-3.175,8.667-6,12-1.852,2.185-5.907,3-8,5a56.259,56.259,0,0,1-12-1c-13.468-20.107-16.665-54.447,1-73a75.43,75.43,0,0,1,15,1c2.342,3.687,6.212,6.715,8,11,1.658,3.974.751,9.625,3,13-0.362-15.788,5.551-27.457,22-27a16.491,16.491,0,0,0,6,3c2.433,4.63,5.517,9.356,7,15,4.674,17.786,1.164,52.188-11,57-4.968,4.444-11.8,1.169-15-2-8.7-8.6-10.48-25.335-10-43h-1C406.081,71.772,404.864,71.9,401,72ZM242,77H213c-0.558,12.475.981,26.043,12,27,1.021-.8.274-0.355,2-1,2.116-4.031,4.368-12.21,10-13,1.021,0.8.274,0.355,2,1a25.084,25.084,0,0,1,1,8c-2.074,2.732-2.007,7.034-4,10l-8,7H217c-1.588-2-4.617-2.983-6-5-7.684-11.21-10.47-42.409-4-58,2.161-5.207,6.41-8.249,10-12a53.781,53.781,0,0,1,16,2C239,52.539,242.024,60.4,242,77Zm364,39h-8c-0.372-2.076-.242-1.924-1-3-2.936,4.072-11.915,6.882-17,3a10.087,10.087,0,0,1-7-7c-6.39-7.94-1.889-27.068,3-33,1.338-1.623,4.465-2.493,6-4,8.127-.172,11.657,1.5,17,3-0.628-9.548-1.176-21.166-11-22-1.047,1.736-3.054,2.524-4,4-2.527,3.944-.686,8.736-5,11-1.819-1.738-4.606-2.871-7-4v9c-1.337,1.992-1.1,6.507-1,10h-7a21.507,21.507,0,0,1-1-7c3.181-4.649.521-17.2-1-21-1.754.631-.971,0.193-2,1-11.651,11.543-11.009,39.165-11,62a34.041,34.041,0,0,1-8-1V78c-3.795-5.937-1.134-24.661-1-33a28.9,28.9,0,0,1,9-1V56h1V54c2.976-3.251,3.309-7.286,8-9,1.69-1.142,4.9-1.066,8-1l5,7c1.422,4.026-.085,6.316,2,9,0.145-14.014,10.324-20.37,25-17C611.05,62.984,606.388,86.346,606,116ZM506,139h-7V45h8c0.372,2.076.242,1.925,1,3,5.344-7.3,18.425-5.889,23,1,9.535,14.357,6.586,64.072-8,69-1.69,1.142-4.9,1.066-8,1a65.521,65.521,0,0,0-9-7v27ZM110,45q0.5,6,1,12L93,59,92,47Zm174,0,9,1c-0.2,18.557-4.062,43.958,2,59l2-1c6.846-15.032,10.693-36,11-57h8q-0.5,34.5-1,69h-7c0.069-4.169-.2-9.45-2-12-0.583,5.372-3.5,10.454-8,12-9.025,5.667-11.313-4.945-13-11C280.554,89.043,283.105,62.674,284,45Zm200,69c0.18-15.434,4.267-38.709-1-52h-1v1c-7.725,8.22-6.085,36.081-6,51h-2c-1.549,1.049-4.085,1.031-7,1,0.439-16.248.7-36.772,0-53h-1v1c-8.337,10.913-7.048,34.376-9,51h-8c0.124-21.241,0-43.563,0-67l9,1v9h1V55c4.126-4.69,2.752-8.879,12-9,1.4,2.546,3.077,6.682,5,9V54c3.518-3.455,3.836-5.746,11-6,8.708,13.658,9.062,45.388,5,66h-8ZM25,47H42c0.105,4.31.006,9.13-1,12-4.289-1.543-11.646-.931-16,0V47Zm21,0H66V58H46V47Zm380,4c-2.341,3.383-5.663,6.621-7,11-4.2,13.749-1.189,40.86,10,43l5-6c5.047-11.192,6.971-42.622-5-47C427.927,51.248,428.054,51.4,426,51ZM221,53c-4.072,4.438-5.553,7.408-8,14h20V65C228.939,59.327,230.726,53.414,221,53Zm296,0c-2.921,2.955-6.31,5.85-8,10-5.518,13.549-2.685,41.778,10,44l6-7C530.989,86.5,530.19,56.643,517,53ZM10,68c-0.725,4.89,1.53,14.993,3,21,3.483,14.23,3.18,28.521,6,42l3,1c5.448,3.394,21.331,1,29,1h75c9.238-17.019,5.217-44.472,12-64h-2c-4.736-2.943-27.307-1-35-1H10Zm15,2H42v59H25V70Zm41,59H47c-4.322-12.987-1.08-42.216-1-58,4.611-1.573,12.8-1.076,19-1C69.393,83.2,66.08,112.968,66,129ZM95,70h18q3.5,28,7,56c-5.907.152-14.881,2.5-18,1-2.566-4.136-.732-10.374-2-16A203.629,203.629,0,0,1,95,70ZM72,71H90v57c-4.357,1.488-12.072,1.075-18,1V71ZM587,83c-5,4.817-7.2,6.422-7,17,2.088,2.2,1.716,3.689,5,5,1.18,0.8,1.681.773,4,1,4.235-4.361,8.864-6.332,10-14C594.653,88.645,592.794,85.49,587,83Z"/>
</svg>
